<?xml version="1.0" encoding="UTF-8"?>
<svg version="1.1" xmlns="http://www.w3.org/2000/svg" width="1024" height="1024">
<path d="M0 0 C337.92 0 675.84 0 1024 0 C1024 337.92 1024 675.84 1024 1024 C686.08 1024 348.16 1024 0 1024 C0 686.08 0 348.16 0 0 Z " fill="#FEFEFE" transform="translate(0,0)"/>
<path d="M0 0 C14.89184871 -0.28551476 25.68105531 1.51144794 36.87109375 11.86328125 C43.654678 19.07255601 45.46254853 25.24887431 46.55859375 35.11328125 C39.62859375 35.11328125 32.69859375 35.11328125 25.55859375 35.11328125 C24.56859375 32.47328125 23.57859375 29.83328125 22.55859375 27.11328125 C19.27972429 23.01469443 15.71122162 20.25635569 10.55859375 19.11328125 C4.43296162 18.52784788 -1.25194611 18.13584369 -6.94140625 20.67578125 C-14.85832309 28.39477516 -17.80701807 34.01886464 -18.44140625 45.11328125 C-18.50714844 46.22703125 -18.57289063 47.34078125 -18.640625 48.48828125 C-18.94684016 58.11822 -17.65532466 66.30804377 -11.69140625 74.11328125 C-7.12757849 78.87107169 -1.95997346 80.23048024 4.49609375 80.55078125 C10.94355101 80.33222338 16.29711556 78.31524685 20.93359375 73.80078125 C23.00916222 70.5082135 23.00916222 70.5082135 25.55859375 64.11328125 C32.48859375 64.11328125 39.41859375 64.11328125 46.55859375 64.11328125 C46.55859375 73.4327239 41.96411748 81.03328289 35.49609375 87.67578125 C26.48097045 95.8964684 17.98109496 98.64277515 5.93359375 98.42578125 C4.58007812 98.43061523 4.58007812 98.43061523 3.19921875 98.43554688 C-2.03169631 98.39360805 -6.44064681 97.80306405 -11.44140625 96.11328125 C-12.23546875 95.901875 -13.02953125 95.69046875 -13.84765625 95.47265625 C-24.20219917 92.45902062 -29.8657651 85.058549 -35.44140625 76.11328125 C-42.11592039 62.57245658 -43.31702731 43.62812419 -38.87890625 29.17578125 C-33.48058699 16.3642771 -24.16448919 6.61113899 -11.44140625 1.11328125 C-7.47722411 0.18830542 -4.05347476 0.13342879 0 0 Z " fill="#07295A" transform="translate(562.44140625,462.88671875)"/>
<path d="M0 0 C4.75307079 3.4169895 8.46626924 6.88825242 10.54296875 12.48828125 C11.08383957 16.80547733 11.00905166 21.07680615 10.93359375 25.421875 C10.92793396 26.65494888 10.92227417 27.88802277 10.91644287 29.15846252 C10.89412424 33.08130364 10.84393298 37.00321804 10.79296875 40.92578125 C10.77063676 43.59178351 10.75464844 46.25777707 10.73828125 48.92382812 C10.69427371 55.44566739 10.62527449 61.96681741 10.54296875 68.48828125 C4.27296875 68.48828125 -1.99703125 68.48828125 -8.45703125 68.48828125 C-8.95203125 64.52828125 -8.95203125 64.52828125 -9.45703125 60.48828125 C-9.99328125 61.27203125 -10.52953125 62.05578125 -11.08203125 62.86328125 C-13.75945967 65.82254424 -15.6413615 66.53436381 -19.45703125 67.48828125 C-19.45703125 68.14828125 -19.45703125 68.80828125 -19.45703125 69.48828125 C-25.21846216 72.36899671 -36.09512522 71.50732925 -42.21484375 69.65234375 C-47.63600584 66.48468433 -51.67538582 61.0515721 -54.45703125 55.48828125 C-55.16965859 48.30092547 -55.39280857 42.0866102 -50.94921875 36.13671875 C-45.91685847 30.57740975 -40.87549129 27.60455615 -33.3671875 26.70703125 C-32.41779297 26.58714844 -31.46839844 26.46726562 -30.49023438 26.34375 C-29.50990234 26.22644531 -28.52957031 26.10914063 -27.51953125 25.98828125 C-18.82564187 24.9777549 -18.82564187 24.9777549 -10.45703125 22.48828125 C-9.96217454 17.41790793 -9.96217454 17.41790793 -12.26953125 13.05078125 C-16.97830973 10.7425565 -21.30834392 10.70747431 -26.45703125 11.48828125 C-30.073944 13.58609064 -31.13994534 14.53702351 -32.45703125 18.48828125 C-38.88958526 18.60914343 -45.0747618 18.31179989 -51.45703125 17.48828125 C-50.83032899 10.90790751 -48.0454661 6.77354128 -43.26953125 2.36328125 C-31.50232235 -6.99140365 -12.96621075 -7.97762092 0 0 Z " fill="#07295A" transform="translate(674.45703125,491.51171875)"/>
<path d="M0 0 C6.6 0 13.2 0 20 0 C20.33 11.22 20.66 22.44 21 34 C23.31 31.36 25.62 28.72 28 26 C32.45452786 23.03228144 36.54828041 22.4187104 41.8125 22.4375 C42.51737549 22.43991699 43.22225098 22.44233398 43.94848633 22.44482422 C50.43152423 22.67308444 54.40791198 24.55046017 59 29 C59.50917969 29.49113281 60.01835938 29.98226563 60.54296875 30.48828125 C67.28305912 37.82134145 67.42090366 45.03510942 67.29296875 54.49609375 C67.28872391 55.68477554 67.28447906 56.87345734 67.28010559 58.09815979 C67.26337251 61.87817457 67.2257289 65.65764755 67.1875 69.4375 C67.17244628 72.00715373 67.15875908 74.57681586 67.14648438 77.14648438 C67.11348635 83.43119693 67.06173995 89.71550674 67 96 C60.4 96 53.8 96 47 96 C46.99589111 94.5773584 46.99178223 93.1547168 46.98754883 91.68896484 C46.96574078 86.39953621 46.91143254 81.11084965 46.84741211 75.82177734 C46.82424691 73.53474044 46.80983989 71.24759708 46.80444336 68.96044922 C46.79514342 65.6682716 46.75412726 62.37776501 46.70703125 59.0859375 C46.7109639 58.06696381 46.71489655 57.04799011 46.71894836 55.99813843 C46.62484349 51.39643175 46.5462813 48.039051 43.58081055 44.36962891 C39.3533626 40.48810306 36.28875997 40.66366647 30.703125 40.71484375 C27.05525636 41.09966226 25.37679982 42.23984537 23 45 C21.19803662 48.01524111 20.73753782 50.27265531 20.68115234 53.76855469 C20.66128265 54.70922791 20.64141296 55.64990112 20.62094116 56.61907959 C20.60361435 58.13021332 20.60361435 58.13021332 20.5859375 59.671875 C20.56657135 60.70942932 20.5472052 61.74698364 20.5272522 62.815979 C20.46751158 66.12723592 20.4210927 69.43852771 20.375 72.75 C20.33681518 74.99610884 20.29776315 77.24220312 20.2578125 79.48828125 C20.16181439 84.9920691 20.0777626 90.49592551 20 96 C13.4 96 6.8 96 0 96 C0 64.32 0 32.64 0 0 Z " fill="#062859" transform="translate(777,464)"/>
<path d="M0 0 C6.6 0 13.2 0 20 0 C20.02505615 1.39234863 20.0501123 2.78469727 20.07592773 4.21923828 C20.17026633 9.39657421 20.2704221 14.57378424 20.37231445 19.75097656 C20.41556337 21.98955332 20.45724536 24.22816094 20.49731445 26.46679688 C20.55526074 29.68889656 20.61888466 32.91084239 20.68359375 36.1328125 C20.70030624 37.12991241 20.71701874 38.12701233 20.73423767 39.15432739 C20.83416289 43.86632769 21.04107292 48.36575453 22 53 C23.32 53.33 24.64 53.66 26 54 C26 54.66 26 55.32 26 56 C32.77842362 55.75877496 37.77750893 55.55294093 43 51 C45.12794168 47.80808747 45.26099543 46.92679016 45.31884766 43.25317383 C45.33871735 42.29240433 45.35858704 41.33163483 45.37905884 40.3417511 C45.39061005 39.30729355 45.40216125 38.272836 45.4140625 37.20703125 C45.43342865 36.14586594 45.4527948 35.08470062 45.4727478 33.99137878 C45.53257833 30.59850122 45.57894321 27.2055898 45.625 23.8125 C45.66317655 21.51365699 45.70222809 19.21482833 45.7421875 16.91601562 C45.83993134 11.27741798 45.91947348 5.63897521 46 0 C52.93 0 59.86 0 67 0 C67 23.76 67 47.52 67 72 C60.4 72 53.8 72 47 72 C47 68.04 47 64.08 47 60 C46.34 60 45.68 60 45 60 C44.773125 60.721875 44.54625 61.44375 44.3125 62.1875 C42.28799813 66.52571829 39.33255708 69.03389612 35.5 71.8125 C28.12423121 74.31499298 19.27977115 74.027796 12 71.1640625 C5.83649033 67.57670726 2.77234929 62.28218512 0.63482666 55.6864624 C-0.5498433 50.67317056 -0.36427587 45.65234313 -0.29296875 40.52734375 C-0.28872391 39.3636879 -0.28447906 38.20003204 -0.28010559 37.00111389 C-0.26341785 33.31299942 -0.22578319 29.62544714 -0.1875 25.9375 C-0.1724404 23.42513814 -0.15875424 20.91276765 -0.14648438 18.40039062 C-0.11354664 12.26671305 -0.06183235 6.13345159 0 0 Z " fill="#07295A" transform="translate(365,488)"/>
<path d="M0 0 C0.89912109 -0.02449219 1.79824219 -0.04898437 2.72460938 -0.07421875 C12.77572246 -0.11782445 19.61584404 3.55500713 26.8671875 10.3515625 C30.32470544 14.1948979 30.6875 17.3489793 30.6875 22.375 C24.7475 22.705 18.8075 23.035 12.6875 23.375 C12.0275 22.055 11.3675 20.735 10.6875 19.375 C6.97290331 16.5081597 4.20303274 15.98690235 -0.4375 16.0625 C-1.98824219 16.06830078 -1.98824219 16.06830078 -3.5703125 16.07421875 C-6.52728889 16.18548468 -6.52728889 16.18548468 -9.3125 18.375 C-9.97926878 21.83249949 -9.97926878 21.83249949 -9.3125 25.375 C-4.96861836 29.05746757 0.38023613 29.34209886 5.8125 30.1875 C15.324222 31.83471759 23.37477271 33.95958873 30.3125 41.0625 C33.24091681 45.98756464 33.26760471 50.79770754 32.6875 56.375 C30.51312233 63.8281379 25.62659281 68.19556033 19.01171875 71.85546875 C12.3157914 74.89288433 6.19903294 75.83094765 -1.0625 75.875 C-2.23184082 75.88442627 -2.23184082 75.88442627 -3.42480469 75.89404297 C-12.81430971 75.68957806 -19.56686813 72.9679753 -26.359375 66.49609375 C-29.72719517 62.83864105 -32.12837875 59.53842468 -32.5625 54.4375 C-32.48 53.756875 -32.3975 53.07625 -32.3125 52.375 C-25.60087062 51.49478631 -19.07844019 51.26118045 -12.3125 51.375 C-11.879375 52.32375 -11.44625 53.2725 -11 54.25 C-9.51947799 57.57541937 -9.51947799 57.57541937 -6.3125 59.375 C-3.51105546 59.73099164 -3.51105546 59.73099164 -0.4375 59.6875 C0.59117187 59.70425781 1.61984375 59.72101562 2.6796875 59.73828125 C6.10102892 59.3250543 7.98620851 58.49850154 10.6875 56.375 C11.10496608 53.24864791 11.10496608 53.24864791 10.6875 50.375 C4.53323573 46.78587445 -2.05259914 45.81377341 -8.99414062 44.53320312 C-17.1499959 42.85488191 -23.41284891 39.76971347 -28.875 33.375 C-31.5342794 27.82143511 -31.20497555 21.32026023 -30.3125 15.375 C-27.23106035 8.15498448 -20.67264302 4.23149268 -13.70703125 1.265625 C-9.10169103 0.0573194 -4.74222242 0.00671228 0 0 Z " fill="#082A5A" transform="translate(477.3125,486.625)"/>
<path d="M0 0 C5.12989341 3.08967829 10.39193692 6.97137384 13.125 12.4375 C13.16522391 14.7704866 13.16820247 17.10456666 13.125 19.4375 C10.22759378 19.57289281 7.33654379 19.67176829 4.4375 19.75 C3.62087891 19.79189453 2.80425781 19.83378906 1.96289062 19.87695312 C-2.5224197 19.96774888 -4.29292749 19.88973124 -7.95703125 17.04296875 C-9.875 14.4375 -9.875 14.4375 -9.875 12.4375 C-17.93903252 11.69786565 -17.93903252 11.69786565 -25.1875 14.625 C-27.08714386 17.26626262 -27.08714386 17.26626262 -26.9375 20.0625 C-25.6015702 23.04869603 -24.72469798 23.800819 -21.875 25.4375 C-18.90204388 26.0943644 -15.89737499 26.40182051 -12.875 26.75 C-3.13829793 28.09350389 5.44585215 30.6431754 12.875 37.4375 C16.14239608 41.8037525 15.94096334 46.78511443 15.72265625 52.046875 C14.84255968 57.03984119 12.71086873 59.97377765 9.125 63.4375 C8.34576172 64.28248047 8.34576172 64.28248047 7.55078125 65.14453125 C6.125 66.4375 6.125 66.4375 4.125 66.4375 C4.125 67.0975 4.125 67.7575 4.125 68.4375 C-6.22246483 73.97219049 -19.81635153 74.07925027 -31.23046875 71.75390625 C-36.61682095 69.74133124 -40.86896374 66.52186657 -44.875 62.4375 C-45.473125 61.839375 -46.07125 61.24125 -46.6875 60.625 C-47.9448568 58.30881642 -48.40390815 56.37087382 -48.94921875 53.80078125 C-49.12412842 52.98520752 -49.29903809 52.16963379 -49.47924805 51.3293457 C-49.60984619 50.70503662 -49.74044434 50.08072754 -49.875 49.4375 C-46.43794295 49.29244825 -43.00166967 49.20351986 -39.5625 49.125 C-38.58603516 49.08310547 -37.60957031 49.04121094 -36.60351562 48.99804688 C-33.94026223 48.95228651 -31.49584663 48.95628586 -28.875 49.4375 C-26.89453125 51.83203125 -26.89453125 51.83203125 -25.875 54.4375 C-22.43999301 56.72750466 -20.98771981 56.73498064 -16.9375 56.75 C-15.89722656 56.76675781 -14.85695313 56.78351562 -13.78515625 56.80078125 C-10.5435887 56.39612919 -9.31980957 55.51039223 -6.875 53.4375 C-6.215 53.4375 -5.555 53.4375 -4.875 53.4375 C-4.875 51.4575 -4.875 49.4775 -4.875 47.4375 C-8.19420174 46.02827554 -11.36460303 45.01437638 -14.89453125 44.2890625 C-15.83490234 44.08796875 -16.77527344 43.886875 -17.74414062 43.6796875 C-19.69359258 43.27091058 -21.64411308 42.86719417 -23.59570312 42.46875 C-30.89850591 40.89353793 -38.42457922 39.07387325 -43.25 32.9375 C-43.71148438 32.3703125 -44.17296875 31.803125 -44.6484375 31.21875 C-48.10574476 26.1979471 -48.60053585 21.91356673 -48.51171875 15.83984375 C-47.37296224 9.754832 -43.57164036 6.21807738 -38.875 2.4375 C-28.20210594 -4.45770304 -11.51052754 -5.51332275 0 0 Z " fill="#092B5B" transform="translate(747.875,489.5625)"/>
<path d="M0 0 C6.93 0 13.86 0 21 0 C21.09073061 9.19764099 21.16396213 18.39497988 21.20724869 27.59296894 C21.22803457 31.86496555 21.25618527 36.13663746 21.30175781 40.40844727 C21.34553989 44.53874546 21.3692046 48.66873331 21.37950897 52.79924583 C21.38684278 54.36716782 21.40116247 55.93507476 21.42292023 57.50286293 C21.58863032 69.94973977 20.41379982 80.01166612 11.68359375 89.5390625 C10 91 10 91 7 92 C7 92.66 7 93.32 7 94 C-3.76715644 98.64709642 -16.24201358 100.4072249 -27.5625 96.5 C-34.74493591 93.05586264 -40.85626766 86.65165798 -43.6875 79.1875 C-44.16796924 75.82421529 -44 72.39743061 -44 69 C-37.07 69 -30.14 69 -23 69 C-22.01 72.465 -22.01 72.465 -21 76 C-19.71107713 78.62283334 -19.71107713 78.62283334 -17 80 C-13.22862392 80.60847164 -9.76437778 80.68079173 -6 80 C-2.70543312 77.01920139 -1.07469446 74.42189608 -0.84178162 69.98812866 C-0.82623734 68.69573273 -0.81069305 67.40333679 -0.79467773 66.07177734 C-0.78477814 65.35947464 -0.77487854 64.64717194 -0.76467896 63.9132843 C-0.73304142 61.55420274 -0.7082977 59.19510103 -0.68359375 56.8359375 C-0.66302616 55.20211253 -0.64202974 53.56829292 -0.62062073 51.93447876 C-0.56537987 47.63057784 -0.5159795 43.32662874 -0.46777344 39.02264404 C-0.4175731 34.63223982 -0.36187939 30.24190571 -0.30664062 25.8515625 C-0.1990344 17.23443263 -0.09810245 8.61724332 0 0 Z " fill="#0A2B5B" transform="translate(327,464)"/>
<path d="M0 0 C0.79535156 0.30550781 1.59070313 0.61101562 2.41015625 0.92578125 C14.65743678 6.26334408 23.58650155 16.25986549 29.01953125 28.25 C31.95728995 36.19133859 31.26092732 44.66965384 31 53 C32.65 52.34 34.3 51.68 36 51 C35.74658809 54.42106076 34.69217816 55.30782184 32.1875 57.8125 C29 60 29 60 26.875 60.25 C23.70274524 58.13516349 22.60197333 55.44127604 21 52 C21.33 51.01 21.66 50.02 22 49 C22.66 49 23.32 49 24 49 C24.99 51.475 24.99 51.475 26 54 C26.33 54 26.66 54 27 54 C27.46217934 39.24449655 26.62879083 28.0097282 17 16 C7.05603298 6.17620177 -3.78941632 1.24450145 -17.6875 0.5625 C-30.18985134 0.81765003 -40.41468409 6.35136375 -49.03125 15.05078125 C-52.15340562 18.44804485 -54.7256953 21.46913884 -56 26 C-56.66 26 -57.32 26 -58 26 C-61.28168911 37.32248114 -62.63124265 53.24772796 -57 64 C-51.99499743 72.2829268 -45.55316952 80.66182336 -36.4375 84.5 C-35.633125 84.665 -34.82875 84.83 -34 85 C-34 85.66 -34 86.32 -34 87 C-26.41 87.66 -18.82 88.32 -11 89 C-11 90.32 -11 91.64 -11 93 C-25.52171518 93.86744759 -38.65391188 89.47783043 -49.71484375 80.109375 C-59.41434643 71.15598791 -64.11949906 59.0508083 -64.66455078 45.98828125 C-64.77768539 32.48915562 -61.47474173 23.36315771 -52.8671875 12.86328125 C-51 11 -51 11 -48 10 C-48 9.34 -48 8.68 -48 8 C-34.21097284 -3.02036423 -16.58452302 -6.85195302 0 0 Z " fill="#2EC378" transform="translate(234,471)"/>
<path d="M0 0 C0 3.96 0 7.92 0 12 C-0.66 12 -1.32 12 -2 12 C-2.309375 12.86625 -2.309375 12.86625 -2.625 13.75 C-4.63961421 17.04664144 -6.53557624 18.26778812 -10 20 C-15.09201219 20.88804693 -18.72298431 20.81729004 -23.125 18 C-25.1676702 14.73172768 -25.94123203 12.74943522 -25.66015625 8.9296875 C-24.55128516 5.68837199 -22.50685815 4.52568961 -19.55859375 2.96484375 C-13.21995005 0.57454605 -6.72586092 0 0 0 Z " fill="#F2F3F6" transform="translate(665,528)"/>
<path d="M0 0 C0.66 0 1.32 0 2 0 C2 0.66 2 1.32 2 2 C4.475 2.99 4.475 2.99 7 4 C7 4.99 7 5.98 7 7 C6.01 7 5.02 7 4 7 C4 6.34 4 5.68 4 5 C3.34 5 2.68 5 2 5 C2 6.98 2 8.96 2 11 C2.804375 11.309375 3.60875 11.61875 4.4375 11.9375 C7 13 7 13 8 14 C8.30392154 16.88725465 8.41849029 18.42208484 6.6875 20.8125 C5 22 5 22 2 22 C2 22.66 2 23.32 2 24 C1.34 24 0.68 24 0 24 C0 23.34 0 22.68 0 22 C-0.61875 21.9175 -1.2375 21.835 -1.875 21.75 C-4 21 -4 21 -5.25 18.9375 C-5.4975 18.298125 -5.745 17.65875 -6 17 C-2.125 17.875 -2.125 17.875 -1 19 C-0.66602213 16.12586875 -0.66602213 16.12586875 -1 13 C-1.66 12.505 -2.32 12.01 -3 11.5 C-3.66 11.005 -4.32 10.51 -5 10 C-5.375 6.9375 -5.375 6.9375 -5 4 C-4.34 3.34 -3.68 2.68 -3 2 C-2.01 2 -1.02 2 0 2 C0 1.34 0 0.68 0 0 Z " fill="#1EBE6E" transform="translate(240,534)"/>
<path d="M0 0 C0.99 0 1.98 0 3 0 C3.33 7.92 3.66 15.84 4 24 C5.44375 22.68 6.8875 21.36 8.375 20 C12.75 16 12.75 16 15 16 C14.67818755 19.02369617 14.12282996 19.89657546 11.75 21.89453125 C10.8425 22.52746094 9.935 23.16039062 9 23.8125 C5.40887464 26.42084484 5.40887464 26.42084484 3.1171875 30.07421875 C2.79908983 32.17331153 2.79908983 32.17331153 3 35 C2.01 35 1.02 35 0 35 C0 34.01 0 33.02 0 32 C-0.66 32 -1.32 32 -2 32 C-2 32.66 -2 33.32 -2 34 C-2.99 34 -3.98 34 -5 34 C-4.6875 32.125 -4.6875 32.125 -4 30 C-3.01 29.34 -2.02 28.68 -1 28 C-0.48853802 25.09386566 -0.48853802 25.09386566 -0.48828125 21.6796875 C-0.45283203 20.42285156 -0.41738281 19.16601562 -0.38085938 17.87109375 C-0.35830078 16.55238281 -0.33574219 15.23367188 -0.3125 13.875 C-0.27933471 12.53512241 -0.24484578 11.19527689 -0.20898438 9.85546875 C-0.12626673 6.5703967 -0.05719307 3.28559968 0 0 Z " fill="#2BC176" transform="translate(217,487)"/>
<path d="M0 0 C0.66 0.33 1.32 0.66 2 1 C4.46423862 8.94032445 4.19519713 16.76918771 4 25 C4.61875 24.505 5.2375 24.01 5.875 23.5 C8 22 8 22 10 22 C9.74658809 25.42106076 8.69217816 26.30782184 6.1875 28.8125 C3 31 3 31 0.875 31.25 C-2.29725476 29.13516349 -3.39802667 26.44127604 -5 23 C-4.505 21.515 -4.505 21.515 -4 20 C-3.34 20 -2.68 20 -2 20 C-1.34 21.65 -0.68 23.3 0 25 C0.33 25 0.66 25 1 25 C1.02727345 22.33326258 1.04696948 19.66681131 1.0625 17 C1.07087891 16.25621094 1.07925781 15.51242187 1.08789062 14.74609375 C1.10966272 9.73851156 0.71541549 4.95720968 0 0 Z " fill="#18BC6A" transform="translate(260,500)"/>
<path d="M0 0 C5.76468132 0.858297 8.70864989 5.55888843 12 10 C17.23834756 18.91082349 19.07328211 26.15120381 19.5625 36.3125 C19.60568359 37.14845703 19.64886719 37.98441406 19.69335938 38.84570312 C19.79885307 40.89696935 19.89987315 42.9484648 20 45 C19.34 45 18.68 45 18 45 C17.9498877 44.37955811 17.89977539 43.75911621 17.84814453 43.11987305 C17.61601495 40.3082627 17.37066307 37.49795882 17.125 34.6875 C17.04636719 33.71103516 16.96773438 32.73457031 16.88671875 31.72851562 C16.80292969 30.79072266 16.71914063 29.85292969 16.6328125 28.88671875 C16.55949707 28.02264404 16.48618164 27.15856934 16.41064453 26.26831055 C16.10606542 23.72835763 16.10606542 23.72835763 14 21 C12.79135198 19.18702797 11.60169528 17.36090653 10.44921875 15.51171875 C7.23600885 10.36060842 3.97838136 5.58116641 0 1 C0 0.67 0 0.34 0 0 Z " fill="#3CC781" transform="translate(246,480)"/>
<path d="M0 0 C10.395 0.99 10.395 0.99 21 2 C21 3.32 21 4.64 21 6 C13.21038876 6.46530864 6.47321608 5.15721701 -1 3 C-0.67 2.01 -0.34 1.02 0 0 Z " fill="#3EC783" transform="translate(202,558)"/>
<path d="M0 0 C0.66 0 1.32 0 2 0 C2 0.66 2 1.32 2 2 C3.32 2.33 4.64 2.66 6 3 C6 3.99 6 4.98 6 6 C6.66 6 7.32 6 8 6 C8.33 4.68 8.66 3.36 9 2 C9.36458333 6.49652778 9.36458333 6.49652778 7.6875 8.8125 C6 10 6 10 3 10 C3 10.66 3 11.32 3 12 C2.34 12 1.68 12 1 12 C1 11.34 1 10.68 1 10 C0.38125 9.9175 -0.2375 9.835 -0.875 9.75 C-3 9 -3 9 -4.25 6.9375 C-4.62125 5.9784375 -4.62125 5.9784375 -5 5 C-1.125 5.875 -1.125 5.875 0 7 C0 4.69 0 2.38 0 0 Z " fill="#38C67F" transform="translate(239,546)"/>
<path d="M0 0 C0.66 0 1.32 0 2 0 C2 0.66 2 1.32 2 2 C4.475 2.99 4.475 2.99 7 4 C7 4.99 7 5.98 7 7 C6.01 7 5.02 7 4 7 C4 6.34 4 5.68 4 5 C3.34 5 2.68 5 2 5 C2 6.65 2 8.3 2 10 C0.68 9.67 -0.64 9.34 -2 9 C-1.979375 8.21625 -1.95875 7.4325 -1.9375 6.625 C-1.81315937 4.01885039 -1.81315937 4.01885039 -3 2 C-2.01 2 -1.02 2 0 2 C0 1.34 0 0.68 0 0 Z " fill="#7AD9A9" transform="translate(240,534)"/>
<path d="M0 0 C0 0.33 0 0.66 0 1 C-7.92 1 -15.84 1 -24 1 C-20.73746985 -5.52506031 -5.69898718 -2.12055337 0 0 Z " fill="#0BB862" transform="translate(230,471)"/>
<path d="M0 0 C0.66 0.33 1.32 0.66 2 1 C1.43410156 1.54269531 0.86820312 2.08539063 0.28515625 2.64453125 C-0.44832031 3.35996094 -1.18179687 4.07539063 -1.9375 4.8125 C-2.66839844 5.52019531 -3.39929688 6.22789062 -4.15234375 6.95703125 C-7.23304303 10.36338584 -7.22953747 13.76385493 -7.5625 18.1875 C-7.64628906 19.27417969 -7.73007812 20.36085938 -7.81640625 21.48046875 C-7.87699219 22.31191406 -7.93757813 23.14335938 -8 24 C-8.33 24 -8.66 24 -9 24 C-10.03316327 10.37755102 -10.03316327 10.37755102 -6.1875 5.25 C-4.21546055 3.01015272 -2.52329824 1.68219882 0 0 Z " fill="#39547B" transform="translate(456,492)"/>
<path d="M0 0 C-0.53675903 3.85103301 -2.11600923 5.31797587 -5.0625 7.75 C-6.16271484 8.67039062 -6.16271484 8.67039062 -7.28515625 9.609375 C-7.85105469 10.06828125 -8.41695312 10.5271875 -9 11 C-9.66 10.01 -10.32 9.02 -11 8 C-9.54712339 6.66072279 -8.08752741 5.32873153 -6.625 4 C-5.81289062 3.2575 -5.00078125 2.515 -4.1640625 1.75 C-2 0 -2 0 0 0 Z " fill="#3DC782" transform="translate(232,503)"/>
<path d="M0 0 C0.66 0 1.32 0 2 0 C2 0.66 2 1.32 2 2 C3.32 2.33 4.64 2.66 6 3 C5.67 4.65 5.34 6.3 5 8 C3.68 8 2.36 8 1 8 C0.67 5.36 0.34 2.72 0 0 Z " fill="#84DCB0" transform="translate(239,546)"/>
<path d="M0 0 C0.98484375 0.02707031 1.9696875 0.05414063 2.984375 0.08203125 C3.73203125 0.11683594 4.4796875 0.15164063 5.25 0.1875 C5.25 0.5175 5.25 0.8475 5.25 1.1875 C4.12851562 1.33445312 4.12851562 1.33445312 2.984375 1.484375 C-4.34208447 2.45559216 -4.34208447 2.45559216 -9.75 7.1875 C-10.41 7.1875 -11.07 7.1875 -11.75 7.1875 C-9.35239168 1.39327989 -6.15973262 -0.21999045 0 0 Z " fill="#BAC3D0" transform="translate(810.75,503.8125)"/>
<path d="M0 0 C0 0.66 0 1.32 0 2 C-6.0546875 2.9765625 -6.0546875 2.9765625 -8 3 C-8.66 2.34 -9.32 1.68 -10 1 C-3.71428571 -1.42857143 -3.71428571 -1.42857143 0 0 Z " fill="#2CC277" transform="translate(207,471)"/>
<path d="M0 0 C0.66 0 1.32 0 2 0 C2 0.66 2 1.32 2 2 C4.475 2.99 4.475 2.99 7 4 C7 4.99 7 5.98 7 7 C6.01 7 5.02 7 4 7 C4 6.01 4 5.02 4 4 C2.68 4 1.36 4 0 4 C0 2.68 0 1.36 0 0 Z " fill="#38C67F" transform="translate(240,534)"/>
<path d="M0 0 C-0.25 1.875 -0.25 1.875 -1 4 C-2.9375 5.3125 -2.9375 5.3125 -5 6 C-5.66 5.67 -6.32 5.34 -7 5 C-6 2 -6 2 -4.0625 0.8125 C-2 0 -2 0 0 0 Z " fill="#38C67F" transform="translate(270,522)"/>
<path d="M0 0 C-1.5830577 4.2742558 -4.50568404 6.26531794 -8 9 C-6.68994234 5.06982701 -4.75047804 0 0 0 Z " fill="#213F6B" transform="translate(630,523)"/>
<path d="M0 0 C2.0625 0.4375 2.0625 0.4375 4 1 C4 2.65 4 4.3 4 6 C3.67 5.01 3.34 4.02 3 3 C2.34 3 1.68 3 1 3 C1 3.66 1 4.32 1 5 C0.01 5 -0.98 5 -2 5 C-1.125 1.125 -1.125 1.125 0 0 Z " fill="#4ECC8D" transform="translate(214,516)"/>
<path d="M0 0 C3.875 1.75 3.875 1.75 5 4 C4.34 4 3.68 4 3 4 C2.67 4.66 2.34 5.32 2 6 C1.01 5.01 0.02 4.02 -1 3 C-0.67 2.01 -0.34 1.02 0 0 Z " fill="#32C47B" transform="translate(183,546)"/>
<path d="M0 0 C0.33 0.66 0.66 1.32 1 2 C1.66 2 2.32 2 3 2 C2.67 3.32 2.34 4.64 2 6 C0.68 5.67 -0.64 5.34 -2 5 C-1.34 3.35 -0.68 1.7 0 0 Z " fill="#4DCC8C" transform="translate(176,491)"/>
<path d="M0 0 C2.475 0.495 2.475 0.495 5 1 C5.33 2.65 5.66 4.3 6 6 C3.96166576 4.7260411 1.96147874 3.38938077 0 2 C0 1.34 0 0.68 0 0 Z " fill="#2CC277" transform="translate(241,477)"/>
<path d="M0 0 C0.66 0.33 1.32 0.66 2 1 C-0.97 3.475 -0.97 3.475 -4 6 C-4.33 5.01 -4.66 4.02 -5 3 C-2.625 1.4375 -2.625 1.4375 0 0 Z " fill="#25C072" transform="translate(226,508)"/>
<path d="M0 0 C-1.39332574 3.36720387 -2.9789286 4.9859524 -6 7 C-5.37162381 3.35541809 -4.14650034 0 0 0 Z " fill="#C8CFDA" transform="translate(648,503)"/>
</svg>
